
        <svg xmlns="http://www.w3.org/2000/svg" xmlns:xlink="http://www.w3.org/1999/xlink" version="1.1" width="250" 
        height="50" viewBox="0 0 3162.311255702111 667.9868453622829">
			
			<g transform="scale(8.115562785105555) translate(10, 10)">
				<defs id="SvgjsDefs1907"><linearGradient id="SvgjsLinearGradient1914"><stop id="SvgjsStop1915" stop-color="#8f5e25" offset="0"></stop><stop id="SvgjsStop1916" stop-color="#fbf4a1" offset="0.5"></stop><stop id="SvgjsStop1917" stop-color="#8f5e25" offset="1"></stop></linearGradient><linearGradient id="SvgjsLinearGradient1918"><stop id="SvgjsStop1919" stop-color="#8f5e25" offset="0"></stop><stop id="SvgjsStop1920" stop-color="#fbf4a1" offset="0.5"></stop><stop id="SvgjsStop1921" stop-color="#8f5e25" offset="1"></stop></linearGradient><linearGradient id="SvgjsLinearGradient1922"><stop id="SvgjsStop1923" stop-color="#8f5e25" offset="0"></stop><stop id="SvgjsStop1924" stop-color="#fbf4a1" offset="0.5"></stop><stop id="SvgjsStop1925" stop-color="#8f5e25" offset="1"></stop></linearGradient></defs><g id="SvgjsG1908" featureKey="symbolFeature-0" transform="matrix(0.4357298474945534,0,0,0.4357298474945534,-14.379084967320262,-41.394335511982575)" fill="url(#SvgjsLinearGradient1914)"><defs xmlns="http://www.w3.org/2000/svg"></defs><g xmlns="http://www.w3.org/2000/svg"><path class="fil0" d="M119 208c0,0 0,2 3,7 2,6 11,3 11,3 0,0 0,0 2,4 2,4 11,2 11,2 0,0 0,0 2,3 2,3 8,5 11,2 1,-1 1,-2 2,-4 6,4 23,13 28,13 4,0 6,-3 6,-5 3,0 9,0 13,-1 4,-1 5,-6 5,-9 4,0 10,1 14,-1 4,-2 4,-7 4,-10 2,-1 4,-1 7,-4 6,-4 5,-12 5,-13l0 0 0 0c0,0 0,-1 -1,-1l0 0 14 -5 4 19 40 -9 -4 -104 -58 16 1 2c-19,7 -20,6 -19,11 -11,-4 -37,-13 -43,-13 -5,0 -10,5 -15,9 -15,1 -38,3 -48,3 0,-2 -11,-4 -21,-7l1 -6 -59 -11 -2 101 40 10 5 -23c20,5 14,2 31,11 0,10 6,11 10,10zm-40 -25l13 -63c5,1 13,4 17,5l-14 62 -16 -4zm43 12c1,3 1,5 1,6l1 0c1,-2 4,-7 7,-6 5,0 7,4 7,6 0,3 0,6 -1,7l1 0c0,-1 4,-8 10,-6 7,2 3,13 3,13 0,0 1,-2 6,0 2,1 3,3 4,5 4,3 24,14 28,14 2,0 2,-2 2,-3l-28 -18c-1,0 -2,-2 -1,-2 1,-1 2,-2 3,-1l29 18c2,1 8,2 12,0 3,-1 3,-5 3,-7l-32 -20c-1,-1 -1,-2 -1,-3 1,-1 2,-1 3,-1l33 21c1,1 9,2 13,0 3,-1 2,-6 1,-8l-40 -28c-1,-1 -1,-2 0,-3 1,-1 2,-1 3,-1l40 29c1,1 3,1 7,-2 3,-3 3,-7 3,-8 -1,-4 -37,-26 -36,-32 -14,-3 -23,-11 -25,-23l-16 2c-9,30 -27,25 -26,17 6,-41 -1,-26 19,-36 -14,1 -34,2 -42,2l-14 62 11 5c1,-2 11,-5 12,1zm19 -47c0,0 10,0 10,1 1,2 0,9 -3,11 -4,3 -10,4 -9,1 0,-2 2,-10 2,-13zm114 37l-16 5 -15 -67c3,-1 12,-4 16,-6l15 68zm19 0c3,0 6,3 6,7 0,3 -3,6 -6,6 -4,0 -7,-3 -7,-6 0,-4 3,-7 7,-7z" style="fill: url(#SvgjsLinearGradient1914);"></path></g></g><g id="SvgjsG1909" featureKey="nameFeature-0" transform="matrix(0.6434791084515921,0,0,0.6434791084515921,135.999998772661,1.1019050129104713)" fill="url(#SvgjsLinearGradient1918)"><path d="M30.6 11.96 l0 9.36 l-21.24 0 l0 3.12 l15.76 0 l0 3.12 l-18.88 0 l0 -9.36 l21.24 0 l0 -3.12 l-24.36 0 l0 21.8 l24.36 0 l0 -3.12 l-21.24 0 l0 -3.12 l24.36 0 l0 9.36 l-30.6 0 l0 -28.04 l30.6 0 z M55.08 27.84 l8.96 -15.88 l9.92 0 l0 28.04 l-9.36 0 l0 -10.48 l-5.96 10.48 l-7.16 0 l-9.08 -15.92 l0 -5.88 l10.92 18.68 l3.52 0 l10.88 -18.68 l0 18.68 l3.12 0 l0 -21.8 l-5 0 l-10.84 18.72 l-10.68 -18.72 l-5 0 l0 21.8 l3.08 0 l0 -5.88 l3.12 5.36 l0 3.64 l-9.32 0 l0 -28.04 l9.92 0 z M79.56 11.96 l22.84 0 c4.28 0 7.76 3.48 7.76 7.8 c0 4.28 -3.48 7.8 -7.76 7.8 l-19.72 -0.04 l0 9.36 l3.12 0 l0 -6.24 l3.08 0 l0 9.36 l-9.32 0 l0 -15.6 l22.84 0.04 c2.56 0 4.64 -2.12 4.64 -4.68 c0 -2.6 -2.08 -4.68 -4.64 -4.68 l-19.72 0 l0 3.12 l19.72 0 c0.8 0.04 1.48 0.72 1.48 1.56 s-0.64 1.52 -1.56 1.56 l-0.04 0 l-22.72 0 l0 -9.36 z M117.28 15.079999999999998 l0 15.56 l27.64 0 l0 9.36 l-30.76 0 l0 -3.12 l27.68 0 l0 -3.12 l-27.68 0 l0 -21.8 l9.36 0 l0 15.6 l-3.12 0 l0 -12.48 l-3.12 0 z M162.88 10.719999999999999 c8.4 0 15.24 6.84 15.24 15.28 s-6.84 15.24 -15.24 15.24 c-8.44 0 -15.28 -6.8 -15.28 -15.24 s6.84 -15.28 15.28 -15.28 z M162.88 38.16 c6.72 0 12.16 -5.44 12.16 -12.16 s-5.44 -12.2 -12.16 -12.2 c-6.76 0 -12.2 5.48 -12.2 12.2 s5.44 12.16 12.2 12.16 z M162.88 16.88 c5 0 9.08 4.12 9.08 9.12 s-4.08 9.08 -9.08 9.08 s-9.12 -4.08 -9.12 -9.08 s4.12 -9.12 9.12 -9.12 z M162.88 32 c3.32 0 6 -2.68 6 -6 c0 -3.36 -2.68 -6.04 -6 -6.04 c-3.36 0 -6.04 2.68 -6.04 6.04 c0 3.32 2.68 6 6.04 6 z M203.12 11.96 l11.32 0 l-10.68 15.36 l0 12.68 l-9.36 0 l0 -12.6 l-10.68 -15.44 l11.36 0 l2.24 3.28 l-1.84 2.76 l-2 -2.92 l-3.8 0 l7.84 11.32 l0.04 0.04 l0 10.44 l3.2 0 l0 -10.48 l7.72 -11.32 l-3.8 0 l-5.6 8.12 l-1.8 -2.56 z M249.04 11.96 l0 9.36 l-21.24 0 l0 3.12 l15.76 0 l0 3.12 l-18.88 0 l0 -9.36 l21.24 0 l0 -3.12 l-24.36 0 l0 21.8 l24.36 0 l0 -3.12 l-21.24 0 l0 -3.12 l24.36 0 l0 9.36 l-30.6 0 l0 -28.04 l30.6 0 z M274.4 30.64 l1.8 -3.12 l5.44 9.36 l3.6 0 c-0.8 -1.28 -8.4 -14.28 -9.04 -15.56 l-7.84 13.6 l-2.92 5.08 l-10.8 0 c0.6 -1 4.64 -8.04 8.52 -14.8 c2.28 -3.96 4.8 -8.4 7.64 -13.24 l3.6 0 l-7.44 12.88 l-6.92 12.04 l3.6 0 c4.92 -8.68 8 -13.8 12.56 -21.8 c0.28 0.48 14.36 24.88 14.44 24.92 l-10.8 0 z M319.72 27.560000000000002 c-15.88 0 -16.12 -0.04 -16.32 -0.04 l-0.08 0 c-4 -0.32 -7.08 -3.72 -7.08 -7.76 c0 -4.32 3.48 -7.8 7.8 -7.8 l16.8 0 c3.36 0 6.08 2.72 6.08 6.12 l0 3.24 l-22.76 0 l-0.04 0 l-0.04 0 c-0.92 -0.04 -1.52 -0.72 -1.52 -1.56 s0.64 -1.52 1.48 -1.56 l19.76 0 l0 -0.08 c0 -1.72 -1.32 -3.04 -3.04 -3.04 l-16.72 0 c-2.56 0 -4.68 2.08 -4.68 4.68 c0 2.4 1.8 4.32 4.08 4.64 c15.96 0 16.12 0.04 16.4 0.04 c4 0.32 7.08 3.76 7.08 7.76 c0 4.32 -3.48 7.8 -7.76 7.8 l-16.84 0 c-3.36 0 -6.08 -2.72 -6.08 -6.08 l0 -3.28 l22.92 0 c1.96 0.12 1.96 3 0 3.12 l-19.8 0 l0 0.08 c0 1.72 1.32 3.04 3.04 3.04 l16.76 0 c2.52 0 4.68 -2 4.68 -4.68 c0 -2.4 -1.8 -4.32 -4.12 -4.64 z M363.12 11.96 l0 9.36 l-21.24 0 l0 3.12 l15.76 0 l0 3.12 l-18.88 0 l0 -9.36 l21.24 0 l0 -3.12 l-24.36 0 l0 21.8 l24.36 0 l0 -3.12 l-21.24 0 l0 -3.12 l24.36 0 l0 9.36 l-30.6 0 l0 -28.04 l30.6 0 z"></path></g><g id="SvgjsG1910" featureKey="sloganFeature-0" transform="matrix(0.4046676173420817,0,0,0.4046676173420817,135.3795636952287,45.69612601501402)" fill="url(#SvgjsLinearGradient1922)"><path d="M7.0508 20.19531 c-3.0957 0 -5.5176 -1.582 -5.5176 -5.1367 l0 -9.1699 l2.9297 0 l0 8.7695 c0 2.1484 1.1426 2.9492 2.5879 2.9492 c1.4551 0 2.6074 -0.81055 2.6074 -2.9492 l0 -8.7695 l2.9297 0 l0 9.1699 c0 3.5547 -2.4316 5.1367 -5.5371 5.1367 z M25.1319921875 5.888999999999999 l2.9199 0 l0 14.111 l-3.3887 0 l-6.25 -10.088 l0 10.088 l-2.9199 0 l0 -14.111 l3.3496 0 l6.2891 10.029 l0 -10.029 z M34.179728125 17.4121 l4.4238 0 l0 2.5879 l-7.3535 0 l0 -14.111 l2.9297 0 l0 11.523 z M48.5695703125 8.467 l-5.2344 0 l0 3.2031 l4.6387 0 l0 2.5488 l-4.6387 0 l0 3.1934 l5.2344 0 l0 2.5879 l-8.1836 0 l0 -14.111 l8.1836 0 l0 2.5781 z M60.576640624999996 20 l-1.0254 -2.9102 l-5.9277 0 l-1.0254 2.9102 l-2.998 0 l5.1953 -14.111 l3.584 0 l5.1953 14.111 l-2.998 0 z M54.482440625 14.6387 l4.209 0 l-2.0996 -5.9863 z M69.9267859375 20.19531 c-3.0273 0 -5.3906 -1.4551 -5.8203 -4.1016 l3.0273 -0.69336 c0.19531 1.582 1.3574 2.4023 2.9102 2.4023 c1.1914 0 2.1387 -0.52734 2.1289 -1.7188 c-0.0097656 -1.3281 -1.5723 -1.748 -3.291 -2.2754 c-2.0703 -0.64453 -4.2871 -1.4063 -4.2871 -4.0039 c0 -2.627 2.1484 -4.1113 4.9805 -4.1113 c2.4805 0 4.9805 1.0059 5.5469 3.7109 l-2.832 0.70313 c-0.26367 -1.4063 -1.2109 -2.0215 -2.5391 -2.0215 c-1.1816 0 -2.1875 0.48828 -2.1875 1.6504 c0 1.084 1.3867 1.4453 2.9883 1.9238 c2.1289 0.64453 4.6484 1.4648 4.6484 4.2773 c0 2.998 -2.5098 4.2578 -5.2734 4.2578 z M86.348 5.888999999999999 l2.9297 0 l0 14.111 l-2.9297 0 l0 -5.8008 l-5.9668 0 l0 5.8008 l-2.9297 0 l0 -14.111 l2.9297 0 l0 5.7617 l5.9668 0 l0 -5.7617 z M103.085925 5.888999999999999 c2.7637 0 4.4824 2.0508 4.4824 4.5605 c0 2.5684 -1.7188 4.4922 -4.4824 4.4922 l-2.9395 0 l0 5.0586 l-2.9297 0 l0 -14.111 l5.8691 0 z M102.597625 12.4902 c1.4648 0 2.1484 -0.81055 2.1484 -2.0801 c0 -1.2207 -0.68359 -2.0703 -2.1484 -2.0703 l-2.4512 0 l0 4.1504 l2.4512 0 z M115.8252234375 20.19531 c-4.1504 0 -7.2168 -2.832 -7.2168 -7.2559 c0 -4.4336 3.0664 -7.2461 7.2168 -7.2461 c4.1406 0 7.207 2.8125 7.207 7.2461 c0 4.4238 -3.0664 7.2559 -7.207 7.2559 z M115.8252234375 17.5098 c2.4316 0 4.2969 -1.709 4.2969 -4.5703 c0 -2.8516 -1.8652 -4.5508 -4.2969 -4.5508 s-4.2969 1.6992 -4.2969 4.5508 c0 2.8613 1.8652 4.5703 4.2969 4.5703 z M133.457265625 5.888999999999999 l0 2.5781 l-3.3496 0 l0 11.533 l-2.9004 0 l0 -11.533 l-3.3691 0 l0 -2.5781 l9.6191 0 z M143.4035546875 8.467 l-5.2344 0 l0 3.2031 l4.6387 0 l0 2.5488 l-4.6387 0 l0 3.1934 l5.2344 0 l0 2.5879 l-8.1836 0 l0 -14.111 l8.1836 0 l0 2.5781 z M155.605625 5.888999999999999 l2.9199 0 l0 14.111 l-3.3887 0 l-6.25 -10.088 l0 10.088 l-2.9199 0 l0 -14.111 l3.3496 0 l6.2891 10.029 l0 -10.029 z M169.9074609375 5.888999999999999 l0 2.5781 l-3.3496 0 l0 11.533 l-2.9004 0 l0 -11.533 l-3.3691 0 l0 -2.5781 l9.6191 0 z M171.66995 20 l0 -14.111 l2.9297 0 l0 14.111 l-2.9297 0 z M187.2319140625 20 l-1.0254 -2.9102 l-5.9277 0 l-1.0254 2.9102 l-2.998 0 l5.1953 -14.111 l3.584 0 l5.1953 14.111 l-2.998 0 z M181.1377140625 14.6387 l4.209 0 l-2.0996 -5.9863 z M194.824259375 17.4121 l4.4238 0 l0 2.5879 l-7.3535 0 l0 -14.111 l2.9297 0 l0 11.523 z M208.0664125 20 l-3.6914 -14.111 l3.0469 0 l2.7539 10.684 l3.1543 -10.684 l2.4707 0 l3.1348 10.684 l2.7832 -10.684 l3.0371 0 l-3.6914 14.111 l-3.7695 0 l-2.7344 -8.7207 l-2.7246 8.7207 l-3.7695 0 z M226.5576453125 20 l0 -14.111 l2.9297 0 l0 14.111 l-2.9297 0 z M240.859609375 5.888999999999999 l0 2.5781 l-3.3496 0 l0 11.533 l-2.9004 0 l0 -11.533 l-3.3691 0 l0 -2.5781 l9.6191 0 z M251.5188984375 5.888999999999999 l2.9297 0 l0 14.111 l-2.9297 0 l0 -5.8008 l-5.9668 0 l0 5.8008 l-2.9297 0 l0 -14.111 l2.9297 0 l0 5.7617 l5.9668 0 l0 -5.7617 z M270.5715234375 8.467 l-5.2344 0 l0 3.2031 l4.6387 0 l0 2.5488 l-4.6387 0 l0 3.1934 l5.2344 0 l0 2.5879 l-8.1836 0 l0 -14.111 l8.1836 0 l0 2.5781 z M289.30659375 20 l-2.9199 0 l-0.92773 -10.635 l-3.5742 10.635 l-1.8945 0 l-3.5742 -10.635 l-0.9375 10.635 l-2.9297 0 l1.1816 -14.111 l4.1797 0 l3.0078 8.8574 l3.0469 -8.8574 l4.1797 0 z M297.7880734375 5.888999999999999 c2.7637 0 4.4824 2.0508 4.4824 4.5605 c0 2.5684 -1.7188 4.4922 -4.4824 4.4922 l-2.9395 0 l0 5.0586 l-2.9297 0 l0 -14.111 l5.8691 0 z M297.2997734375 12.4902 c1.4648 0 2.1484 -0.81055 2.1484 -2.0801 c0 -1.2207 -0.68359 -2.0703 -2.1484 -2.0703 l-2.4512 0 l0 4.1504 l2.4512 0 z M307.207071875 17.4121 l4.4238 0 l0 2.5879 l-7.3535 0 l0 -14.111 l2.9297 0 l0 11.523 z M319.6631140625 20.19531 c-4.1504 0 -7.2168 -2.832 -7.2168 -7.2559 c0 -4.4336 3.0664 -7.2461 7.2168 -7.2461 c4.1406 0 7.207 2.8125 7.207 7.2461 c0 4.4238 -3.0664 7.2559 -7.207 7.2559 z M319.6631140625 17.5098 c2.4316 0 4.2969 -1.709 4.2969 -4.5703 c0 -2.8516 -1.8652 -4.5508 -4.2969 -4.5508 s-4.2969 1.6992 -4.2969 4.5508 c0 2.8613 1.8652 4.5703 4.2969 4.5703 z M339.69715625 5.888999999999999 l-4.6387 7.3535 l0 6.7578 l-2.9395 0 l0 -6.6895 l-4.668 -7.4219 l3.2422 0 l2.8809 4.8047 l2.8906 -4.8047 l3.2324 0 z M349.4094140625 8.467 l-5.2344 0 l0 3.2031 l4.6387 0 l0 2.5488 l-4.6387 0 l0 3.1934 l5.2344 0 l0 2.5879 l-8.1836 0 l0 -14.111 l8.1836 0 l0 2.5781 z M361.416484375 20 l-1.0254 -2.9102 l-5.9277 0 l-1.0254 2.9102 l-2.998 0 l5.1953 -14.111 l3.584 0 l5.1953 14.111 l-2.998 0 z M355.322284375 14.6387 l4.209 0 l-2.0996 -5.9863 z M370.7666296875 20.19531 c-3.0273 0 -5.3906 -1.4551 -5.8203 -4.1016 l3.0273 -0.69336 c0.19531 1.582 1.3574 2.4023 2.9102 2.4023 c1.1914 0 2.1387 -0.52734 2.1289 -1.7188 c-0.0097656 -1.3281 -1.5723 -1.748 -3.291 -2.2754 c-2.0703 -0.64453 -4.2871 -1.4063 -4.2871 -4.0039 c0 -2.627 2.1484 -4.1113 4.9805 -4.1113 c2.4805 0 4.9805 1.0059 5.5469 3.7109 l-2.832 0.70313 c-0.26367 -1.4063 -1.2109 -2.0215 -2.5391 -2.0215 c-1.1816 0 -2.1875 0.48828 -2.1875 1.6504 c0 1.084 1.3867 1.4453 2.9883 1.9238 c2.1289 0.64453 4.6484 1.4648 4.6484 4.2773 c0 2.998 -2.5098 4.2578 -5.2734 4.2578 z M386.47484375 8.467 l-5.2344 0 l0 3.2031 l4.6387 0 l0 2.5488 l-4.6387 0 l0 3.1934 l5.2344 0 l0 2.5879 l-8.1836 0 l0 -14.111 l8.1836 0 l0 2.5781 z"></path></g>
			</g>
		</svg>
	